<mxfile host="app.diagrams.net" agent="Mozilla/5.0 (Windows NT 10.0; Win64; x64) AppleWebKit/537.36 (KHTML, like Gecko) Chrome/141.0.0.0 Safari/537.36" version="28.2.5">
  <diagram name="Página-1" id="Ajh2RSLuiRo4JLDdMdcr">
    <mxGraphModel dx="3204" dy="1308" grid="1" gridSize="10" guides="1" tooltips="1" connect="1" arrows="1" fold="1" page="1" pageScale="1" pageWidth="827" pageHeight="1169" math="0" shadow="0">
      <root>
        <mxCell id="0" />
        <mxCell id="1" parent="0" />
        <mxCell id="ko9hGlwA9eUnDPVLQC4B-35" value="" style="edgeStyle=orthogonalEdgeStyle;rounded=0;orthogonalLoop=1;jettySize=auto;html=1;endArrow=none;endFill=0;" edge="1" parent="1" source="ko9hGlwA9eUnDPVLQC4B-1" target="ko9hGlwA9eUnDPVLQC4B-34">
          <mxGeometry relative="1" as="geometry" />
        </mxCell>
        <mxCell id="ko9hGlwA9eUnDPVLQC4B-1" value="Usuario" style="rounded=0;whiteSpace=wrap;html=1;" vertex="1" parent="1">
          <mxGeometry x="350" y="380" width="120" height="60" as="geometry" />
        </mxCell>
        <mxCell id="ko9hGlwA9eUnDPVLQC4B-14" value="" style="rounded=0;orthogonalLoop=1;jettySize=auto;html=1;endArrow=none;endFill=0;" edge="1" parent="1" source="ko9hGlwA9eUnDPVLQC4B-5" target="ko9hGlwA9eUnDPVLQC4B-1">
          <mxGeometry relative="1" as="geometry" />
        </mxCell>
        <mxCell id="ko9hGlwA9eUnDPVLQC4B-5" value="idUsuario" style="ellipse;whiteSpace=wrap;html=1;" vertex="1" parent="1">
          <mxGeometry x="410" y="210" width="120" height="80" as="geometry" />
        </mxCell>
        <mxCell id="ko9hGlwA9eUnDPVLQC4B-32" style="rounded=0;orthogonalLoop=1;jettySize=auto;html=1;entryX=1;entryY=0.5;entryDx=0;entryDy=0;endArrow=none;endFill=0;" edge="1" parent="1" source="ko9hGlwA9eUnDPVLQC4B-15" target="ko9hGlwA9eUnDPVLQC4B-1">
          <mxGeometry relative="1" as="geometry" />
        </mxCell>
        <mxCell id="ko9hGlwA9eUnDPVLQC4B-15" value="nombre" style="ellipse;whiteSpace=wrap;html=1;" vertex="1" parent="1">
          <mxGeometry x="700" y="270" width="120" height="80" as="geometry" />
        </mxCell>
        <mxCell id="ko9hGlwA9eUnDPVLQC4B-16" value="apellido" style="ellipse;whiteSpace=wrap;html=1;" vertex="1" parent="1">
          <mxGeometry x="720" y="370" width="120" height="80" as="geometry" />
        </mxCell>
        <mxCell id="ko9hGlwA9eUnDPVLQC4B-30" style="rounded=0;orthogonalLoop=1;jettySize=auto;html=1;entryX=0;entryY=0.75;entryDx=0;entryDy=0;endArrow=none;endFill=0;" edge="1" parent="1" source="ko9hGlwA9eUnDPVLQC4B-17" target="ko9hGlwA9eUnDPVLQC4B-1">
          <mxGeometry relative="1" as="geometry" />
        </mxCell>
        <mxCell id="ko9hGlwA9eUnDPVLQC4B-17" value="correo" style="ellipse;whiteSpace=wrap;html=1;" vertex="1" parent="1">
          <mxGeometry x="100" y="450" width="120" height="80" as="geometry" />
        </mxCell>
        <mxCell id="ko9hGlwA9eUnDPVLQC4B-18" value="telefono" style="ellipse;whiteSpace=wrap;html=1;" vertex="1" parent="1">
          <mxGeometry x="260" y="200" width="120" height="80" as="geometry" />
        </mxCell>
        <mxCell id="ko9hGlwA9eUnDPVLQC4B-28" style="rounded=0;orthogonalLoop=1;jettySize=auto;html=1;entryX=0;entryY=0.25;entryDx=0;entryDy=0;endArrow=none;endFill=0;" edge="1" parent="1" source="ko9hGlwA9eUnDPVLQC4B-19" target="ko9hGlwA9eUnDPVLQC4B-1">
          <mxGeometry relative="1" as="geometry" />
        </mxCell>
        <mxCell id="ko9hGlwA9eUnDPVLQC4B-19" value="direccion" style="ellipse;whiteSpace=wrap;html=1;" vertex="1" parent="1">
          <mxGeometry x="160" y="260" width="120" height="80" as="geometry" />
        </mxCell>
        <mxCell id="ko9hGlwA9eUnDPVLQC4B-26" style="rounded=0;orthogonalLoop=1;jettySize=auto;html=1;entryX=0.75;entryY=1;entryDx=0;entryDy=0;endArrow=none;endFill=0;" edge="1" parent="1" source="ko9hGlwA9eUnDPVLQC4B-20" target="ko9hGlwA9eUnDPVLQC4B-1">
          <mxGeometry relative="1" as="geometry" />
        </mxCell>
        <mxCell id="ko9hGlwA9eUnDPVLQC4B-20" value="idRol" style="ellipse;whiteSpace=wrap;html=1;" vertex="1" parent="1">
          <mxGeometry x="530" y="470" width="120" height="80" as="geometry" />
        </mxCell>
        <mxCell id="ko9hGlwA9eUnDPVLQC4B-31" style="rounded=0;orthogonalLoop=1;jettySize=auto;html=1;entryX=1;entryY=0.25;entryDx=0;entryDy=0;endArrow=none;endFill=0;" edge="1" parent="1" source="ko9hGlwA9eUnDPVLQC4B-21" target="ko9hGlwA9eUnDPVLQC4B-1">
          <mxGeometry relative="1" as="geometry" />
        </mxCell>
        <mxCell id="ko9hGlwA9eUnDPVLQC4B-21" value="usuario" style="ellipse;whiteSpace=wrap;html=1;" vertex="1" parent="1">
          <mxGeometry x="590" y="210" width="120" height="80" as="geometry" />
        </mxCell>
        <mxCell id="ko9hGlwA9eUnDPVLQC4B-29" style="rounded=0;orthogonalLoop=1;jettySize=auto;html=1;endArrow=none;endFill=0;" edge="1" parent="1" source="ko9hGlwA9eUnDPVLQC4B-22" target="ko9hGlwA9eUnDPVLQC4B-1">
          <mxGeometry relative="1" as="geometry" />
        </mxCell>
        <mxCell id="ko9hGlwA9eUnDPVLQC4B-22" value="contraseña" style="ellipse;whiteSpace=wrap;html=1;" vertex="1" parent="1">
          <mxGeometry x="150" y="360" width="120" height="80" as="geometry" />
        </mxCell>
        <mxCell id="ko9hGlwA9eUnDPVLQC4B-27" style="rounded=0;orthogonalLoop=1;jettySize=auto;html=1;entryX=0.333;entryY=-0.05;entryDx=0;entryDy=0;entryPerimeter=0;endArrow=none;endFill=0;" edge="1" parent="1" source="ko9hGlwA9eUnDPVLQC4B-18" target="ko9hGlwA9eUnDPVLQC4B-1">
          <mxGeometry relative="1" as="geometry" />
        </mxCell>
        <mxCell id="ko9hGlwA9eUnDPVLQC4B-33" style="rounded=0;orthogonalLoop=1;jettySize=auto;html=1;entryX=1.042;entryY=0.883;entryDx=0;entryDy=0;entryPerimeter=0;endArrow=none;endFill=0;" edge="1" parent="1" source="ko9hGlwA9eUnDPVLQC4B-16" target="ko9hGlwA9eUnDPVLQC4B-1">
          <mxGeometry relative="1" as="geometry" />
        </mxCell>
        <mxCell id="ko9hGlwA9eUnDPVLQC4B-37" value="" style="rounded=0;orthogonalLoop=1;jettySize=auto;html=1;endArrow=none;endFill=0;" edge="1" parent="1" source="ko9hGlwA9eUnDPVLQC4B-34" target="ko9hGlwA9eUnDPVLQC4B-36">
          <mxGeometry relative="1" as="geometry" />
        </mxCell>
        <mxCell id="ko9hGlwA9eUnDPVLQC4B-115" value="" style="rounded=0;orthogonalLoop=1;jettySize=auto;html=1;endArrow=none;endFill=0;" edge="1" parent="1" source="ko9hGlwA9eUnDPVLQC4B-34" target="ko9hGlwA9eUnDPVLQC4B-114">
          <mxGeometry relative="1" as="geometry" />
        </mxCell>
        <mxCell id="ko9hGlwA9eUnDPVLQC4B-34" value="tiene" style="rhombus;whiteSpace=wrap;html=1;rounded=0;" vertex="1" parent="1">
          <mxGeometry x="370" y="680" width="80" height="80" as="geometry" />
        </mxCell>
        <mxCell id="ko9hGlwA9eUnDPVLQC4B-51" value="" style="edgeStyle=orthogonalEdgeStyle;rounded=0;orthogonalLoop=1;jettySize=auto;html=1;endArrow=none;endFill=0;" edge="1" parent="1" source="ko9hGlwA9eUnDPVLQC4B-36" target="ko9hGlwA9eUnDPVLQC4B-50">
          <mxGeometry relative="1" as="geometry" />
        </mxCell>
        <mxCell id="ko9hGlwA9eUnDPVLQC4B-146" style="edgeStyle=orthogonalEdgeStyle;rounded=0;orthogonalLoop=1;jettySize=auto;html=1;entryX=0.5;entryY=1;entryDx=0;entryDy=0;endArrow=none;endFill=0;" edge="1" parent="1" source="ko9hGlwA9eUnDPVLQC4B-36" target="ko9hGlwA9eUnDPVLQC4B-42">
          <mxGeometry relative="1" as="geometry" />
        </mxCell>
        <mxCell id="ko9hGlwA9eUnDPVLQC4B-149" value="" style="edgeStyle=orthogonalEdgeStyle;rounded=0;orthogonalLoop=1;jettySize=auto;html=1;endArrow=none;endFill=0;" edge="1" parent="1" source="ko9hGlwA9eUnDPVLQC4B-36" target="ko9hGlwA9eUnDPVLQC4B-148">
          <mxGeometry relative="1" as="geometry" />
        </mxCell>
        <mxCell id="ko9hGlwA9eUnDPVLQC4B-36" value="Roles" style="whiteSpace=wrap;html=1;rounded=0;" vertex="1" parent="1">
          <mxGeometry x="580" y="690" width="120" height="60" as="geometry" />
        </mxCell>
        <mxCell id="ko9hGlwA9eUnDPVLQC4B-38" value="" style="line;strokeWidth=2;html=1;" vertex="1" parent="1">
          <mxGeometry x="440" y="250" width="60" height="10" as="geometry" />
        </mxCell>
        <mxCell id="ko9hGlwA9eUnDPVLQC4B-46" style="rounded=0;orthogonalLoop=1;jettySize=auto;html=1;entryX=0.25;entryY=1;entryDx=0;entryDy=0;endArrow=none;endFill=0;" edge="1" parent="1" source="ko9hGlwA9eUnDPVLQC4B-40" target="ko9hGlwA9eUnDPVLQC4B-36">
          <mxGeometry relative="1" as="geometry" />
        </mxCell>
        <mxCell id="ko9hGlwA9eUnDPVLQC4B-40" value="idRol" style="ellipse;whiteSpace=wrap;html=1;" vertex="1" parent="1">
          <mxGeometry x="455" y="760" width="120" height="80" as="geometry" />
        </mxCell>
        <mxCell id="ko9hGlwA9eUnDPVLQC4B-42" value="nombreRol" style="ellipse;whiteSpace=wrap;html=1;" vertex="1" parent="1">
          <mxGeometry x="580" y="570" width="120" height="80" as="geometry" />
        </mxCell>
        <mxCell id="ko9hGlwA9eUnDPVLQC4B-45" value="descripcion" style="ellipse;whiteSpace=wrap;html=1;" vertex="1" parent="1">
          <mxGeometry x="780" y="790" width="120" height="80" as="geometry" />
        </mxCell>
        <mxCell id="ko9hGlwA9eUnDPVLQC4B-47" style="rounded=0;orthogonalLoop=1;jettySize=auto;html=1;entryX=0.833;entryY=1;entryDx=0;entryDy=0;entryPerimeter=0;endArrow=none;endFill=0;" edge="1" parent="1" source="ko9hGlwA9eUnDPVLQC4B-45" target="ko9hGlwA9eUnDPVLQC4B-36">
          <mxGeometry relative="1" as="geometry" />
        </mxCell>
        <mxCell id="ko9hGlwA9eUnDPVLQC4B-48" value="" style="line;strokeWidth=2;html=1;" vertex="1" parent="1">
          <mxGeometry x="500" y="800" width="30" height="10" as="geometry" />
        </mxCell>
        <mxCell id="ko9hGlwA9eUnDPVLQC4B-61" value="" style="edgeStyle=orthogonalEdgeStyle;rounded=0;orthogonalLoop=1;jettySize=auto;html=1;endArrow=none;endFill=0;" edge="1" parent="1" source="ko9hGlwA9eUnDPVLQC4B-50" target="ko9hGlwA9eUnDPVLQC4B-60">
          <mxGeometry relative="1" as="geometry" />
        </mxCell>
        <mxCell id="ko9hGlwA9eUnDPVLQC4B-50" value="tiene" style="rhombus;whiteSpace=wrap;html=1;rounded=0;" vertex="1" parent="1">
          <mxGeometry x="860" y="680" width="80" height="80" as="geometry" />
        </mxCell>
        <mxCell id="ko9hGlwA9eUnDPVLQC4B-85" value="" style="edgeStyle=orthogonalEdgeStyle;rounded=0;orthogonalLoop=1;jettySize=auto;html=1;endArrow=none;endFill=0;" edge="1" parent="1" source="ko9hGlwA9eUnDPVLQC4B-60" target="ko9hGlwA9eUnDPVLQC4B-84">
          <mxGeometry relative="1" as="geometry" />
        </mxCell>
        <mxCell id="ko9hGlwA9eUnDPVLQC4B-96" value="" style="edgeStyle=orthogonalEdgeStyle;rounded=0;orthogonalLoop=1;jettySize=auto;html=1;endArrow=none;endFill=0;" edge="1" parent="1" source="ko9hGlwA9eUnDPVLQC4B-60" target="ko9hGlwA9eUnDPVLQC4B-95">
          <mxGeometry relative="1" as="geometry" />
        </mxCell>
        <mxCell id="ko9hGlwA9eUnDPVLQC4B-60" value="Libros" style="whiteSpace=wrap;html=1;rounded=0;" vertex="1" parent="1">
          <mxGeometry x="1190" y="690" width="120" height="60" as="geometry" />
        </mxCell>
        <mxCell id="ko9hGlwA9eUnDPVLQC4B-62" value="autor" style="ellipse;whiteSpace=wrap;html=1;" vertex="1" parent="1">
          <mxGeometry x="980" y="390" width="120" height="80" as="geometry" />
        </mxCell>
        <mxCell id="ko9hGlwA9eUnDPVLQC4B-72" style="rounded=0;orthogonalLoop=1;jettySize=auto;html=1;entryX=0;entryY=0.25;entryDx=0;entryDy=0;endArrow=none;endFill=0;" edge="1" parent="1" source="ko9hGlwA9eUnDPVLQC4B-64" target="ko9hGlwA9eUnDPVLQC4B-60">
          <mxGeometry relative="1" as="geometry" />
        </mxCell>
        <mxCell id="ko9hGlwA9eUnDPVLQC4B-64" value="añoPublicacion" style="ellipse;whiteSpace=wrap;html=1;" vertex="1" parent="1">
          <mxGeometry x="941" y="585" width="120" height="80" as="geometry" />
        </mxCell>
        <mxCell id="ko9hGlwA9eUnDPVLQC4B-79" style="rounded=0;orthogonalLoop=1;jettySize=auto;html=1;entryX=1;entryY=0.25;entryDx=0;entryDy=0;endArrow=none;endFill=0;" edge="1" parent="1" source="ko9hGlwA9eUnDPVLQC4B-65" target="ko9hGlwA9eUnDPVLQC4B-60">
          <mxGeometry relative="1" as="geometry" />
        </mxCell>
        <mxCell id="ko9hGlwA9eUnDPVLQC4B-65" value="estado" style="ellipse;whiteSpace=wrap;html=1;" vertex="1" parent="1">
          <mxGeometry x="1410" y="540" width="120" height="80" as="geometry" />
        </mxCell>
        <mxCell id="ko9hGlwA9eUnDPVLQC4B-78" style="rounded=0;orthogonalLoop=1;jettySize=auto;html=1;entryX=1;entryY=0;entryDx=0;entryDy=0;endArrow=none;endFill=0;" edge="1" parent="1" source="ko9hGlwA9eUnDPVLQC4B-66" target="ko9hGlwA9eUnDPVLQC4B-60">
          <mxGeometry relative="1" as="geometry" />
        </mxCell>
        <mxCell id="ko9hGlwA9eUnDPVLQC4B-66" value="idEditorial" style="ellipse;whiteSpace=wrap;html=1;" vertex="1" parent="1">
          <mxGeometry x="1360" y="440" width="120" height="80" as="geometry" />
        </mxCell>
        <mxCell id="ko9hGlwA9eUnDPVLQC4B-67" value="ISBN" style="ellipse;whiteSpace=wrap;html=1;" vertex="1" parent="1">
          <mxGeometry x="930" y="490" width="120" height="80" as="geometry" />
        </mxCell>
        <mxCell id="ko9hGlwA9eUnDPVLQC4B-68" value="idCategoria" style="ellipse;whiteSpace=wrap;html=1;" vertex="1" parent="1">
          <mxGeometry x="1320" y="330" width="120" height="80" as="geometry" />
        </mxCell>
        <mxCell id="ko9hGlwA9eUnDPVLQC4B-69" value="idLibro" style="ellipse;whiteSpace=wrap;html=1;" vertex="1" parent="1">
          <mxGeometry x="1190" y="300" width="120" height="80" as="geometry" />
        </mxCell>
        <mxCell id="ko9hGlwA9eUnDPVLQC4B-75" style="rounded=0;orthogonalLoop=1;jettySize=auto;html=1;entryX=0.5;entryY=0;entryDx=0;entryDy=0;endArrow=none;endFill=0;" edge="1" parent="1" source="ko9hGlwA9eUnDPVLQC4B-70" target="ko9hGlwA9eUnDPVLQC4B-60">
          <mxGeometry relative="1" as="geometry" />
        </mxCell>
        <mxCell id="ko9hGlwA9eUnDPVLQC4B-70" value="titulo" style="ellipse;whiteSpace=wrap;html=1;" vertex="1" parent="1">
          <mxGeometry x="1061" y="300" width="120" height="80" as="geometry" />
        </mxCell>
        <mxCell id="ko9hGlwA9eUnDPVLQC4B-71" style="edgeStyle=orthogonalEdgeStyle;rounded=0;orthogonalLoop=1;jettySize=auto;html=1;exitX=0.5;exitY=1;exitDx=0;exitDy=0;" edge="1" parent="1" source="ko9hGlwA9eUnDPVLQC4B-66" target="ko9hGlwA9eUnDPVLQC4B-66">
          <mxGeometry relative="1" as="geometry" />
        </mxCell>
        <mxCell id="ko9hGlwA9eUnDPVLQC4B-73" style="rounded=0;orthogonalLoop=1;jettySize=auto;html=1;entryX=0.1;entryY=-0.05;entryDx=0;entryDy=0;entryPerimeter=0;startArrow=none;startFill=0;endArrow=none;endFill=0;" edge="1" parent="1" source="ko9hGlwA9eUnDPVLQC4B-67" target="ko9hGlwA9eUnDPVLQC4B-60">
          <mxGeometry relative="1" as="geometry" />
        </mxCell>
        <mxCell id="ko9hGlwA9eUnDPVLQC4B-74" style="rounded=0;orthogonalLoop=1;jettySize=auto;html=1;entryX=0.308;entryY=-0.017;entryDx=0;entryDy=0;entryPerimeter=0;endArrow=none;endFill=0;" edge="1" parent="1" source="ko9hGlwA9eUnDPVLQC4B-62" target="ko9hGlwA9eUnDPVLQC4B-60">
          <mxGeometry relative="1" as="geometry" />
        </mxCell>
        <mxCell id="ko9hGlwA9eUnDPVLQC4B-76" style="rounded=0;orthogonalLoop=1;jettySize=auto;html=1;entryX=0.667;entryY=-0.017;entryDx=0;entryDy=0;entryPerimeter=0;endArrow=none;endFill=0;" edge="1" parent="1" source="ko9hGlwA9eUnDPVLQC4B-69" target="ko9hGlwA9eUnDPVLQC4B-60">
          <mxGeometry relative="1" as="geometry" />
        </mxCell>
        <mxCell id="ko9hGlwA9eUnDPVLQC4B-77" style="rounded=0;orthogonalLoop=1;jettySize=auto;html=1;entryX=0.858;entryY=-0.017;entryDx=0;entryDy=0;entryPerimeter=0;endArrow=none;endFill=0;" edge="1" parent="1" source="ko9hGlwA9eUnDPVLQC4B-68" target="ko9hGlwA9eUnDPVLQC4B-60">
          <mxGeometry relative="1" as="geometry" />
        </mxCell>
        <mxCell id="ko9hGlwA9eUnDPVLQC4B-80" value="" style="line;strokeWidth=2;html=1;" vertex="1" parent="1">
          <mxGeometry x="1228" y="340" width="44" height="10" as="geometry" />
        </mxCell>
        <mxCell id="ko9hGlwA9eUnDPVLQC4B-87" value="" style="edgeStyle=orthogonalEdgeStyle;rounded=0;orthogonalLoop=1;jettySize=auto;html=1;endArrow=none;endFill=0;" edge="1" parent="1" source="ko9hGlwA9eUnDPVLQC4B-84" target="ko9hGlwA9eUnDPVLQC4B-86">
          <mxGeometry relative="1" as="geometry" />
        </mxCell>
        <mxCell id="ko9hGlwA9eUnDPVLQC4B-84" value="tiene" style="rhombus;whiteSpace=wrap;html=1;rounded=0;" vertex="1" parent="1">
          <mxGeometry x="1210" y="860" width="80" height="80" as="geometry" />
        </mxCell>
        <mxCell id="ko9hGlwA9eUnDPVLQC4B-86" value="Categoria" style="whiteSpace=wrap;html=1;rounded=0;" vertex="1" parent="1">
          <mxGeometry x="1190" y="1030" width="120" height="60" as="geometry" />
        </mxCell>
        <mxCell id="ko9hGlwA9eUnDPVLQC4B-88" value="descripcion" style="ellipse;whiteSpace=wrap;html=1;" vertex="1" parent="1">
          <mxGeometry x="1310" y="1190" width="120" height="80" as="geometry" />
        </mxCell>
        <mxCell id="ko9hGlwA9eUnDPVLQC4B-92" style="rounded=0;orthogonalLoop=1;jettySize=auto;html=1;entryX=0.5;entryY=1;entryDx=0;entryDy=0;endArrow=none;endFill=0;" edge="1" parent="1" source="ko9hGlwA9eUnDPVLQC4B-89" target="ko9hGlwA9eUnDPVLQC4B-86">
          <mxGeometry relative="1" as="geometry" />
        </mxCell>
        <mxCell id="ko9hGlwA9eUnDPVLQC4B-89" value="nombreCategoria" style="ellipse;whiteSpace=wrap;html=1;" vertex="1" parent="1">
          <mxGeometry x="1190" y="1260" width="120" height="80" as="geometry" />
        </mxCell>
        <mxCell id="ko9hGlwA9eUnDPVLQC4B-90" value="idCategoria" style="ellipse;whiteSpace=wrap;html=1;" vertex="1" parent="1">
          <mxGeometry x="1030" y="1190" width="120" height="80" as="geometry" />
        </mxCell>
        <mxCell id="ko9hGlwA9eUnDPVLQC4B-91" style="rounded=0;orthogonalLoop=1;jettySize=auto;html=1;entryX=0.175;entryY=0.967;entryDx=0;entryDy=0;entryPerimeter=0;startArrow=none;startFill=0;endArrow=none;endFill=0;" edge="1" parent="1" source="ko9hGlwA9eUnDPVLQC4B-90" target="ko9hGlwA9eUnDPVLQC4B-86">
          <mxGeometry relative="1" as="geometry" />
        </mxCell>
        <mxCell id="ko9hGlwA9eUnDPVLQC4B-93" style="rounded=0;orthogonalLoop=1;jettySize=auto;html=1;entryX=0.842;entryY=1.033;entryDx=0;entryDy=0;entryPerimeter=0;endArrow=none;endFill=0;" edge="1" parent="1" source="ko9hGlwA9eUnDPVLQC4B-88" target="ko9hGlwA9eUnDPVLQC4B-86">
          <mxGeometry relative="1" as="geometry" />
        </mxCell>
        <mxCell id="ko9hGlwA9eUnDPVLQC4B-94" value="" style="line;strokeWidth=2;html=1;" vertex="1" parent="1">
          <mxGeometry x="1060" y="1230" width="60" height="10" as="geometry" />
        </mxCell>
        <mxCell id="ko9hGlwA9eUnDPVLQC4B-98" value="" style="edgeStyle=orthogonalEdgeStyle;rounded=0;orthogonalLoop=1;jettySize=auto;html=1;endArrow=none;endFill=0;" edge="1" parent="1" source="ko9hGlwA9eUnDPVLQC4B-95" target="ko9hGlwA9eUnDPVLQC4B-97">
          <mxGeometry relative="1" as="geometry" />
        </mxCell>
        <mxCell id="ko9hGlwA9eUnDPVLQC4B-95" value="tiene" style="rhombus;whiteSpace=wrap;html=1;rounded=0;" vertex="1" parent="1">
          <mxGeometry x="1500" y="680" width="80" height="80" as="geometry" />
        </mxCell>
        <mxCell id="ko9hGlwA9eUnDPVLQC4B-97" value="Editorial" style="whiteSpace=wrap;html=1;rounded=0;" vertex="1" parent="1">
          <mxGeometry x="1780" y="690" width="120" height="60" as="geometry" />
        </mxCell>
        <mxCell id="ko9hGlwA9eUnDPVLQC4B-106" style="rounded=0;orthogonalLoop=1;jettySize=auto;html=1;entryX=0;entryY=0.25;entryDx=0;entryDy=0;endArrow=none;endFill=0;" edge="1" parent="1" source="ko9hGlwA9eUnDPVLQC4B-99" target="ko9hGlwA9eUnDPVLQC4B-97">
          <mxGeometry relative="1" as="geometry" />
        </mxCell>
        <mxCell id="ko9hGlwA9eUnDPVLQC4B-99" value="idEditorial" style="ellipse;whiteSpace=wrap;html=1;" vertex="1" parent="1">
          <mxGeometry x="1630" y="545" width="120" height="80" as="geometry" />
        </mxCell>
        <mxCell id="ko9hGlwA9eUnDPVLQC4B-100" value="telefono" style="ellipse;whiteSpace=wrap;html=1;" vertex="1" parent="1">
          <mxGeometry x="1950" y="470" width="120" height="80" as="geometry" />
        </mxCell>
        <mxCell id="ko9hGlwA9eUnDPVLQC4B-101" value="pais" style="ellipse;whiteSpace=wrap;html=1;" vertex="1" parent="1">
          <mxGeometry x="1830" y="440" width="120" height="80" as="geometry" />
        </mxCell>
        <mxCell id="ko9hGlwA9eUnDPVLQC4B-102" value="nombreEditorial" style="ellipse;whiteSpace=wrap;html=1;" vertex="1" parent="1">
          <mxGeometry x="1710" y="450" width="120" height="80" as="geometry" />
        </mxCell>
        <mxCell id="ko9hGlwA9eUnDPVLQC4B-103" style="rounded=0;orthogonalLoop=1;jettySize=auto;html=1;entryX=0.167;entryY=-0.033;entryDx=0;entryDy=0;entryPerimeter=0;startArrow=none;startFill=0;endArrow=none;endFill=0;" edge="1" parent="1" source="ko9hGlwA9eUnDPVLQC4B-102" target="ko9hGlwA9eUnDPVLQC4B-97">
          <mxGeometry relative="1" as="geometry" />
        </mxCell>
        <mxCell id="ko9hGlwA9eUnDPVLQC4B-113" style="rounded=0;orthogonalLoop=1;jettySize=auto;html=1;entryX=1;entryY=0.25;entryDx=0;entryDy=0;endArrow=none;endFill=0;" edge="1" parent="1" source="ko9hGlwA9eUnDPVLQC4B-110" target="ko9hGlwA9eUnDPVLQC4B-97">
          <mxGeometry relative="1" as="geometry" />
        </mxCell>
        <mxCell id="ko9hGlwA9eUnDPVLQC4B-110" value="correo" style="ellipse;whiteSpace=wrap;html=1;" vertex="1" parent="1">
          <mxGeometry x="1980" y="560" width="120" height="80" as="geometry" />
        </mxCell>
        <mxCell id="ko9hGlwA9eUnDPVLQC4B-111" style="rounded=0;orthogonalLoop=1;jettySize=auto;html=1;entryX=0.442;entryY=-0.017;entryDx=0;entryDy=0;entryPerimeter=0;endArrow=none;endFill=0;" edge="1" parent="1" source="ko9hGlwA9eUnDPVLQC4B-101" target="ko9hGlwA9eUnDPVLQC4B-97">
          <mxGeometry relative="1" as="geometry" />
        </mxCell>
        <mxCell id="ko9hGlwA9eUnDPVLQC4B-112" style="rounded=0;orthogonalLoop=1;jettySize=auto;html=1;entryX=0.842;entryY=-0.033;entryDx=0;entryDy=0;entryPerimeter=0;endArrow=none;endFill=0;" edge="1" parent="1" source="ko9hGlwA9eUnDPVLQC4B-100" target="ko9hGlwA9eUnDPVLQC4B-97">
          <mxGeometry relative="1" as="geometry" />
        </mxCell>
        <mxCell id="ko9hGlwA9eUnDPVLQC4B-133" value="" style="edgeStyle=orthogonalEdgeStyle;rounded=0;orthogonalLoop=1;jettySize=auto;html=1;endArrow=none;endFill=0;" edge="1" parent="1" source="ko9hGlwA9eUnDPVLQC4B-114" target="ko9hGlwA9eUnDPVLQC4B-132">
          <mxGeometry relative="1" as="geometry" />
        </mxCell>
        <mxCell id="ko9hGlwA9eUnDPVLQC4B-114" value="Prestamos" style="whiteSpace=wrap;html=1;rounded=0;" vertex="1" parent="1">
          <mxGeometry x="-80" y="690" width="120" height="60" as="geometry" />
        </mxCell>
        <mxCell id="ko9hGlwA9eUnDPVLQC4B-116" value="fechaDevolucion" style="ellipse;whiteSpace=wrap;html=1;" vertex="1" parent="1">
          <mxGeometry x="-70" y="520" width="120" height="80" as="geometry" />
        </mxCell>
        <mxCell id="ko9hGlwA9eUnDPVLQC4B-117" value="fechaPrestamo" style="ellipse;whiteSpace=wrap;html=1;" vertex="1" parent="1">
          <mxGeometry x="100" y="860" width="120" height="80" as="geometry" />
        </mxCell>
        <mxCell id="ko9hGlwA9eUnDPVLQC4B-118" value="idLibro" style="ellipse;whiteSpace=wrap;html=1;" vertex="1" parent="1">
          <mxGeometry x="-240" y="850" width="120" height="80" as="geometry" />
        </mxCell>
        <mxCell id="ko9hGlwA9eUnDPVLQC4B-123" style="rounded=0;orthogonalLoop=1;jettySize=auto;html=1;entryX=0;entryY=0.75;entryDx=0;entryDy=0;endArrow=none;endFill=0;" edge="1" parent="1" source="ko9hGlwA9eUnDPVLQC4B-119" target="ko9hGlwA9eUnDPVLQC4B-114">
          <mxGeometry relative="1" as="geometry" />
        </mxCell>
        <mxCell id="ko9hGlwA9eUnDPVLQC4B-119" value="idUsuario" style="ellipse;whiteSpace=wrap;html=1;" vertex="1" parent="1">
          <mxGeometry x="-300" y="760" width="120" height="80" as="geometry" />
        </mxCell>
        <mxCell id="ko9hGlwA9eUnDPVLQC4B-120" style="rounded=0;orthogonalLoop=1;jettySize=auto;html=1;entryX=0.333;entryY=1;entryDx=0;entryDy=0;entryPerimeter=0;endArrow=none;endFill=0;" edge="1" parent="1" source="ko9hGlwA9eUnDPVLQC4B-118" target="ko9hGlwA9eUnDPVLQC4B-114">
          <mxGeometry relative="1" as="geometry" />
        </mxCell>
        <mxCell id="ko9hGlwA9eUnDPVLQC4B-121" style="rounded=0;orthogonalLoop=1;jettySize=auto;html=1;entryX=0.65;entryY=1.033;entryDx=0;entryDy=0;entryPerimeter=0;endArrow=none;endFill=0;" edge="1" parent="1" source="ko9hGlwA9eUnDPVLQC4B-117" target="ko9hGlwA9eUnDPVLQC4B-114">
          <mxGeometry relative="1" as="geometry" />
        </mxCell>
        <mxCell id="ko9hGlwA9eUnDPVLQC4B-128" style="edgeStyle=orthogonalEdgeStyle;rounded=0;orthogonalLoop=1;jettySize=auto;html=1;entryX=0;entryY=0.25;entryDx=0;entryDy=0;endArrow=none;endFill=0;" edge="1" parent="1" source="ko9hGlwA9eUnDPVLQC4B-126" target="ko9hGlwA9eUnDPVLQC4B-114">
          <mxGeometry relative="1" as="geometry" />
        </mxCell>
        <mxCell id="ko9hGlwA9eUnDPVLQC4B-126" value="estado" style="ellipse;whiteSpace=wrap;html=1;" vertex="1" parent="1">
          <mxGeometry x="-330" y="665" width="120" height="80" as="geometry" />
        </mxCell>
        <mxCell id="ko9hGlwA9eUnDPVLQC4B-127" value="idPrestamo" style="ellipse;whiteSpace=wrap;html=1;" vertex="1" parent="1">
          <mxGeometry x="-250" y="550" width="120" height="80" as="geometry" />
        </mxCell>
        <mxCell id="ko9hGlwA9eUnDPVLQC4B-129" style="rounded=0;orthogonalLoop=1;jettySize=auto;html=1;entryX=0.083;entryY=-0.033;entryDx=0;entryDy=0;entryPerimeter=0;endArrow=none;endFill=0;" edge="1" parent="1" source="ko9hGlwA9eUnDPVLQC4B-127" target="ko9hGlwA9eUnDPVLQC4B-114">
          <mxGeometry relative="1" as="geometry" />
        </mxCell>
        <mxCell id="ko9hGlwA9eUnDPVLQC4B-130" value="" style="line;strokeWidth=2;html=1;" vertex="1" parent="1">
          <mxGeometry x="-220" y="595" width="60" height="10" as="geometry" />
        </mxCell>
        <mxCell id="ko9hGlwA9eUnDPVLQC4B-131" style="edgeStyle=orthogonalEdgeStyle;rounded=0;orthogonalLoop=1;jettySize=auto;html=1;entryX=0.583;entryY=0.033;entryDx=0;entryDy=0;entryPerimeter=0;endArrow=none;endFill=0;" edge="1" parent="1" source="ko9hGlwA9eUnDPVLQC4B-116" target="ko9hGlwA9eUnDPVLQC4B-114">
          <mxGeometry relative="1" as="geometry" />
        </mxCell>
        <mxCell id="ko9hGlwA9eUnDPVLQC4B-135" value="" style="edgeStyle=orthogonalEdgeStyle;rounded=0;orthogonalLoop=1;jettySize=auto;html=1;endArrow=none;endFill=0;" edge="1" parent="1" source="ko9hGlwA9eUnDPVLQC4B-132" target="ko9hGlwA9eUnDPVLQC4B-134">
          <mxGeometry relative="1" as="geometry" />
        </mxCell>
        <mxCell id="ko9hGlwA9eUnDPVLQC4B-132" value="tiene" style="rhombus;whiteSpace=wrap;html=1;rounded=0;" vertex="1" parent="1">
          <mxGeometry x="-60" y="940" width="80" height="80" as="geometry" />
        </mxCell>
        <mxCell id="ko9hGlwA9eUnDPVLQC4B-134" value="Devoluciones" style="whiteSpace=wrap;html=1;rounded=0;" vertex="1" parent="1">
          <mxGeometry x="-80" y="1160" width="120" height="60" as="geometry" />
        </mxCell>
        <mxCell id="ko9hGlwA9eUnDPVLQC4B-145" style="rounded=0;orthogonalLoop=1;jettySize=auto;html=1;entryX=0.75;entryY=1;entryDx=0;entryDy=0;endArrow=none;endFill=0;" edge="1" parent="1" source="ko9hGlwA9eUnDPVLQC4B-136" target="ko9hGlwA9eUnDPVLQC4B-134">
          <mxGeometry relative="1" as="geometry" />
        </mxCell>
        <mxCell id="ko9hGlwA9eUnDPVLQC4B-136" value="multa" style="ellipse;whiteSpace=wrap;html=1;" vertex="1" parent="1">
          <mxGeometry x="50" y="1290" width="120" height="80" as="geometry" />
        </mxCell>
        <mxCell id="ko9hGlwA9eUnDPVLQC4B-144" style="rounded=0;orthogonalLoop=1;jettySize=auto;html=1;entryX=0.5;entryY=1;entryDx=0;entryDy=0;endArrow=none;endFill=0;" edge="1" parent="1" source="ko9hGlwA9eUnDPVLQC4B-137" target="ko9hGlwA9eUnDPVLQC4B-134">
          <mxGeometry relative="1" as="geometry" />
        </mxCell>
        <mxCell id="ko9hGlwA9eUnDPVLQC4B-137" value="fechaDevolucion" style="ellipse;whiteSpace=wrap;html=1;" vertex="1" parent="1">
          <mxGeometry x="-80" y="1370" width="120" height="80" as="geometry" />
        </mxCell>
        <mxCell id="ko9hGlwA9eUnDPVLQC4B-138" value="idPrestamo" style="ellipse;whiteSpace=wrap;html=1;" vertex="1" parent="1">
          <mxGeometry x="-220" y="1310" width="120" height="80" as="geometry" />
        </mxCell>
        <mxCell id="ko9hGlwA9eUnDPVLQC4B-139" value="observaciones" style="ellipse;whiteSpace=wrap;html=1;" vertex="1" parent="1">
          <mxGeometry x="80" y="1190" width="120" height="80" as="geometry" />
        </mxCell>
        <mxCell id="ko9hGlwA9eUnDPVLQC4B-140" value="idDevolucion" style="ellipse;whiteSpace=wrap;html=1;" vertex="1" parent="1">
          <mxGeometry x="-240" y="1195" width="120" height="80" as="geometry" />
        </mxCell>
        <mxCell id="ko9hGlwA9eUnDPVLQC4B-141" style="rounded=0;orthogonalLoop=1;jettySize=auto;html=1;entryX=1.033;entryY=0.883;entryDx=0;entryDy=0;entryPerimeter=0;endArrow=none;endFill=0;" edge="1" parent="1" source="ko9hGlwA9eUnDPVLQC4B-139" target="ko9hGlwA9eUnDPVLQC4B-134">
          <mxGeometry relative="1" as="geometry" />
        </mxCell>
        <mxCell id="ko9hGlwA9eUnDPVLQC4B-142" style="rounded=0;orthogonalLoop=1;jettySize=auto;html=1;entryX=-0.017;entryY=0.867;entryDx=0;entryDy=0;entryPerimeter=0;endArrow=none;endFill=0;" edge="1" parent="1" source="ko9hGlwA9eUnDPVLQC4B-140" target="ko9hGlwA9eUnDPVLQC4B-134">
          <mxGeometry relative="1" as="geometry" />
        </mxCell>
        <mxCell id="ko9hGlwA9eUnDPVLQC4B-143" style="rounded=0;orthogonalLoop=1;jettySize=auto;html=1;entryX=0.167;entryY=0.983;entryDx=0;entryDy=0;entryPerimeter=0;endArrow=none;endFill=0;" edge="1" parent="1" source="ko9hGlwA9eUnDPVLQC4B-138" target="ko9hGlwA9eUnDPVLQC4B-134">
          <mxGeometry relative="1" as="geometry" />
        </mxCell>
        <mxCell id="ko9hGlwA9eUnDPVLQC4B-151" value="" style="edgeStyle=orthogonalEdgeStyle;rounded=0;orthogonalLoop=1;jettySize=auto;html=1;endArrow=none;endFill=0;" edge="1" parent="1" source="ko9hGlwA9eUnDPVLQC4B-148" target="ko9hGlwA9eUnDPVLQC4B-150">
          <mxGeometry relative="1" as="geometry" />
        </mxCell>
        <mxCell id="ko9hGlwA9eUnDPVLQC4B-148" value="tiene" style="rhombus;whiteSpace=wrap;html=1;rounded=0;" vertex="1" parent="1">
          <mxGeometry x="600" y="880" width="80" height="80" as="geometry" />
        </mxCell>
        <mxCell id="ko9hGlwA9eUnDPVLQC4B-150" value="Permisos" style="whiteSpace=wrap;html=1;rounded=0;" vertex="1" parent="1">
          <mxGeometry x="580" y="1100" width="120" height="60" as="geometry" />
        </mxCell>
        <mxCell id="ko9hGlwA9eUnDPVLQC4B-159" style="rounded=0;orthogonalLoop=1;jettySize=auto;html=1;entryX=0.75;entryY=1;entryDx=0;entryDy=0;endArrow=none;endFill=0;" edge="1" parent="1" source="ko9hGlwA9eUnDPVLQC4B-152" target="ko9hGlwA9eUnDPVLQC4B-150">
          <mxGeometry relative="1" as="geometry" />
        </mxCell>
        <mxCell id="ko9hGlwA9eUnDPVLQC4B-152" value="descripcionPermiso" style="ellipse;whiteSpace=wrap;html=1;" vertex="1" parent="1">
          <mxGeometry x="710" y="1160" width="120" height="80" as="geometry" />
        </mxCell>
        <mxCell id="ko9hGlwA9eUnDPVLQC4B-158" value="" style="rounded=0;orthogonalLoop=1;jettySize=auto;html=1;endArrow=none;endFill=0;" edge="1" parent="1" source="ko9hGlwA9eUnDPVLQC4B-153" target="ko9hGlwA9eUnDPVLQC4B-150">
          <mxGeometry relative="1" as="geometry" />
        </mxCell>
        <mxCell id="ko9hGlwA9eUnDPVLQC4B-153" value="nombrePermiso" style="ellipse;whiteSpace=wrap;html=1;" vertex="1" parent="1">
          <mxGeometry x="580" y="1260" width="120" height="80" as="geometry" />
        </mxCell>
        <mxCell id="ko9hGlwA9eUnDPVLQC4B-154" value="idPermiso" style="ellipse;whiteSpace=wrap;html=1;" vertex="1" parent="1">
          <mxGeometry x="440" y="1180" width="120" height="80" as="geometry" />
        </mxCell>
        <mxCell id="ko9hGlwA9eUnDPVLQC4B-155" value="" style="line;strokeWidth=2;html=1;" vertex="1" parent="1">
          <mxGeometry x="-220" y="1240" width="80" height="10" as="geometry" />
        </mxCell>
        <mxCell id="ko9hGlwA9eUnDPVLQC4B-156" value="" style="line;strokeWidth=2;html=1;" vertex="1" parent="1">
          <mxGeometry x="470" y="1225" width="60" height="10" as="geometry" />
        </mxCell>
        <mxCell id="ko9hGlwA9eUnDPVLQC4B-157" style="rounded=0;orthogonalLoop=1;jettySize=auto;html=1;entryX=0.125;entryY=1.017;entryDx=0;entryDy=0;entryPerimeter=0;endArrow=none;endFill=0;" edge="1" parent="1" source="ko9hGlwA9eUnDPVLQC4B-154" target="ko9hGlwA9eUnDPVLQC4B-150">
          <mxGeometry relative="1" as="geometry" />
        </mxCell>
        <mxCell id="ko9hGlwA9eUnDPVLQC4B-160" value="1-M" style="text;html=1;align=center;verticalAlign=middle;resizable=0;points=[];autosize=1;strokeColor=none;fillColor=none;" vertex="1" parent="1">
          <mxGeometry x="40" y="690" width="40" height="30" as="geometry" />
        </mxCell>
        <mxCell id="ko9hGlwA9eUnDPVLQC4B-161" value="1-M" style="text;html=1;align=center;verticalAlign=middle;resizable=0;points=[];autosize=1;strokeColor=none;fillColor=none;" vertex="1" parent="1">
          <mxGeometry x="540" y="688" width="40" height="30" as="geometry" />
        </mxCell>
        <mxCell id="ko9hGlwA9eUnDPVLQC4B-162" value="1-1" style="text;html=1;align=center;verticalAlign=middle;resizable=0;points=[];autosize=1;strokeColor=none;fillColor=none;" vertex="1" parent="1">
          <mxGeometry x="630" y="748" width="40" height="30" as="geometry" />
        </mxCell>
        <mxCell id="ko9hGlwA9eUnDPVLQC4B-163" value="1-M" style="text;html=1;align=center;verticalAlign=middle;resizable=0;points=[];autosize=1;strokeColor=none;fillColor=none;" vertex="1" parent="1">
          <mxGeometry x="630" y="1078" width="40" height="30" as="geometry" />
        </mxCell>
        <mxCell id="ko9hGlwA9eUnDPVLQC4B-164" value="1-M" style="text;html=1;align=center;verticalAlign=middle;resizable=0;points=[];autosize=1;strokeColor=none;fillColor=none;" vertex="1" parent="1">
          <mxGeometry x="700" y="698" width="40" height="30" as="geometry" />
        </mxCell>
        <mxCell id="ko9hGlwA9eUnDPVLQC4B-165" value="1-M" style="text;html=1;align=center;verticalAlign=middle;resizable=0;points=[];autosize=1;strokeColor=none;fillColor=none;" vertex="1" parent="1">
          <mxGeometry x="1140" y="698" width="40" height="30" as="geometry" />
        </mxCell>
        <mxCell id="ko9hGlwA9eUnDPVLQC4B-167" value="1-M" style="text;html=1;align=center;verticalAlign=middle;resizable=0;points=[];autosize=1;strokeColor=none;fillColor=none;" vertex="1" parent="1">
          <mxGeometry x="1210" y="748" width="40" height="30" as="geometry" />
        </mxCell>
        <mxCell id="ko9hGlwA9eUnDPVLQC4B-168" value="1-M" style="text;html=1;align=center;verticalAlign=middle;resizable=0;points=[];autosize=1;strokeColor=none;fillColor=none;" vertex="1" parent="1">
          <mxGeometry x="1210" y="998" width="40" height="30" as="geometry" />
        </mxCell>
        <mxCell id="ko9hGlwA9eUnDPVLQC4B-169" value="1-M" style="text;html=1;align=center;verticalAlign=middle;resizable=0;points=[];autosize=1;strokeColor=none;fillColor=none;" vertex="1" parent="1">
          <mxGeometry x="374" y="440" width="40" height="30" as="geometry" />
        </mxCell>
        <mxCell id="ko9hGlwA9eUnDPVLQC4B-171" value="1-1" style="text;html=1;align=center;verticalAlign=middle;resizable=0;points=[];autosize=1;strokeColor=none;fillColor=none;" vertex="1" parent="1">
          <mxGeometry x="-50" y="758" width="40" height="30" as="geometry" />
        </mxCell>
        <mxCell id="ko9hGlwA9eUnDPVLQC4B-172" value="1-M" style="text;html=1;align=center;verticalAlign=middle;resizable=0;points=[];autosize=1;strokeColor=none;fillColor=none;" vertex="1" parent="1">
          <mxGeometry x="-60" y="1130" width="40" height="30" as="geometry" />
        </mxCell>
      </root>
    </mxGraphModel>
  </diagram>
</mxfile>
